<svg width="414" height="600" viewBox="0 0 414 600" fill="none" xmlns="http://www.w3.org/2000/svg">
<g clip-path="url(#clip0_8_14621)">
<path d="M210.577 164.385C214.398 162.091 218.366 159.867 221.644 158.901C223.136 158.461 224.68 158.151 226.077 157.452C229.312 155.848 231.235 152.494 232.969 149.33C233.176 148.95 233.392 148.536 233.332 148.105C233.245 147.502 232.521 147.114 231.9 147.105C233.038 146.165 234.341 144.923 235.609 143.699C237.084 142.285 238.714 140.948 238.61 139.724C238.585 139.482 238.145 138.646 237.144 138.922C233.823 139.853 232.012 143.406 227.871 143.82C225.646 144.044 223.455 142.992 221.23 143.207C217.978 143.526 215.778 146.596 214.234 149.476C212.69 152.356 209.49 156.228 206.273 157.944L210.577 164.368V164.385Z" fill="white" stroke="black" stroke-miterlimit="10"/>
<path d="M266.126 222.054C266.126 222.054 261.736 232.548 251.514 231.755C240.758 230.927 238.257 220.537 238.257 220.537C239.827 219.959 241.767 219.105 243.191 218.2C247.409 215.354 250.436 210.414 252.411 205.731C254.387 201.049 255.379 195.513 256.215 190.495H256.241C257.328 191.047 258.553 191.487 259.907 191.823C262.012 192.34 263.927 192.676 265.678 192.771C263.694 197.522 261.581 202.575 261.149 207.689C260.744 212.561 261.072 217.458 266.126 222.054Z" fill="white"/>
<path d="M265.712 221.934C265.816 221.692 265.643 222.08 265.617 222.14C265.497 222.399 265.367 222.649 265.229 222.899C264.763 223.753 264.229 224.581 263.651 225.357C261.96 227.607 259.709 229.547 257.052 230.556C253.697 231.824 249.781 231.565 246.546 230.048C244.002 228.849 241.931 226.857 240.465 224.469C239.706 223.227 239.025 221.847 238.68 220.425L238.378 220.959C240.603 220.131 242.794 219.157 244.648 217.665C246.503 216.174 247.969 214.432 249.263 212.526C251.989 208.534 253.774 203.99 254.93 199.316C255.637 196.445 256.146 193.539 256.629 190.624L256.095 190.926C256.836 191.176 257.544 191.573 258.294 191.823C259.114 192.09 259.95 192.297 260.787 192.487C262.391 192.849 264.022 193.116 265.669 193.211L265.255 192.668C263.435 197.031 261.555 201.472 260.882 206.188C260.382 209.689 260.356 213.449 261.744 216.76C262.65 218.924 264.091 220.778 265.816 222.365C266.221 222.735 266.834 222.132 266.428 221.752C264.91 220.364 263.616 218.76 262.745 216.889C262.012 215.311 261.632 213.595 261.503 211.871C261.218 207.87 262.012 203.895 263.28 200.118C264.099 197.669 265.1 195.28 266.092 192.892C266.204 192.616 265.919 192.357 265.678 192.349C264.039 192.254 262.426 191.969 260.83 191.607C259.993 191.417 259.165 191.202 258.355 190.926C257.664 190.693 257.018 190.314 256.336 190.09C256.129 190.021 255.844 190.167 255.801 190.391C254.982 195.306 254.119 200.282 252.282 204.938C250.643 209.086 248.306 213.181 245.002 216.225C243.027 218.053 240.646 219.2 238.145 220.131C237.92 220.218 237.782 220.416 237.843 220.666C238.153 221.951 238.749 223.21 239.387 224.365C240.767 226.831 242.751 228.97 245.226 230.367C248.47 232.186 252.541 232.764 256.138 231.781C259.131 230.962 261.71 229.065 263.685 226.711C264.824 225.357 265.859 223.831 266.549 222.192C266.765 221.683 265.928 221.459 265.721 221.959L265.712 221.934Z" fill="black"/>
<path d="M270.43 152.623C265.678 152.33 261.675 156.116 258.76 159.384C254.87 163.747 253.162 167.23 251.54 171.292C250.203 174.637 249.41 178.009 249.807 181.587C250.359 186.537 253.748 190.305 259.898 191.823C266.187 193.375 270.767 193.297 274.415 189.9C278.668 185.942 280.393 180.777 281.626 175.948C282.731 171.602 282.454 166.722 281.937 163.833C281.333 160.436 278.745 153.132 270.43 152.623Z" fill="white" stroke="black" stroke-miterlimit="10"/>
<path d="M265.445 174.112C264.979 173.905 264.211 173.655 263.702 173.646C263.193 173.637 262.503 173.836 262.063 174.431C261.58 175.086 261.227 176.672 263.236 176.957C263.866 177.043 264.504 177.086 265.143 177.017" stroke="black" stroke-miterlimit="10" stroke-linecap="round"/>
<path d="M270.586 171.585C271.252 171.585 271.793 171.045 271.793 170.378C271.793 169.711 271.252 169.171 270.586 169.171C269.919 169.171 269.378 169.711 269.378 170.378C269.378 171.045 269.919 171.585 270.586 171.585Z" fill="black"/>
<path d="M259.502 168.308C260.169 168.308 260.71 167.768 260.71 167.101C260.71 166.434 260.169 165.894 259.502 165.894C258.835 165.894 258.294 166.434 258.294 167.101C258.294 167.768 258.835 168.308 259.502 168.308Z" fill="black"/>
<path d="M272.415 164.471C275.063 163.686 277.633 166.42 277.443 167.981" stroke="black" stroke-miterlimit="10" stroke-linecap="round"/>
<path d="M262.228 161.6C260.701 160.298 258.07 160.358 256.104 161.841" stroke="black" stroke-miterlimit="10" stroke-linecap="round"/>
<path d="M188.565 577.943C188.763 579.547 190.143 580.737 191.756 580.737H197.165C198.985 580.737 200.425 579.245 200.382 577.434C198.924 516.678 214.545 443.634 234.125 391.725C234.626 447.497 248.841 561.085 252.903 575.779C253.498 577.538 254.542 580.754 257.492 580.737C260.002 580.737 260.356 580.771 262.849 580.573C265.816 580.34 265.264 576.287 265.031 574.606C259.571 525.146 267.274 472.995 271.138 421.456C272.389 404.711 279.134 386.215 279.134 386.215C285.663 368.978 288.027 358.027 288.389 341.376C284.335 351.776 250.738 353.992 238.378 353.698C213.631 353.095 205.342 349.991 197.475 343.868C186.555 390.225 185.546 417.585 183.933 471.236C183.157 497.044 184.873 548.763 188.565 577.952V577.943Z" fill="black"/>
<path d="M225.603 153.055C226.776 151.123 228.286 149.399 230.054 147.993C230.528 147.614 231.054 147.243 231.65 147.131" stroke="black" stroke-miterlimit="10" stroke-linecap="round"/>
<path d="M216.909 147.191C216.693 148.209 216.287 150.399 216.969 151.114C217.167 151.321 217.65 151.416 217.892 151.33C218.754 151.011 219.108 149.976 219.496 149.14C220.428 147.139 221.014 145.208 221.325 144.397" stroke="black" stroke-miterlimit="10" stroke-linecap="round"/>
<path d="M224.758 144.794C224.051 146.95 223.249 148.786 222.101 150.735C221.868 151.132 220.557 153.055 219.41 152.27C218.78 151.839 219.022 150.399 219.203 149.804" stroke="black" stroke-miterlimit="10" stroke-linecap="round"/>
<path d="M221.661 151.356C221.42 151.847 221.342 153.063 222.532 153.348C223.982 153.693 225.457 150.709 226.155 149.295C226.785 148.028 227.915 146.01 228.312 145.208" stroke="black" stroke-miterlimit="10" stroke-linecap="round"/>
<path d="M276.71 187.744C281.057 186.132 284.801 183.459 287.621 179.785C290.442 176.103 291.693 171.016 290.011 166.696C289.139 164.463 287.552 162.522 287.018 160.186C286.276 156.926 287.544 152.943 285.215 150.537C282.653 147.881 278.099 149.562 274.597 148.39C272.552 147.7 270.845 146.243 268.783 145.587C266.049 144.725 262.305 145.398 260.563 148.372C259.174 150.735 258.734 153.356 259.407 156.228C259.942 158.22 261.382 158.504 262.892 158.573C265.134 158.685 268.809 158.315 271.043 158.573C273.829 158.892 276.555 160.272 278.228 162.514C280.014 164.92 278.78 166.817 278.875 170.076C278.875 170.076 278.711 171.826 280.307 171.757C281.851 171.697 282.644 169.378 282.644 169.378C282.644 169.378 281.972 176.25 280.505 179.897C279.039 183.545 276.727 187.753 276.727 187.753L276.71 187.744Z" fill="black"/>
<path d="M281.014 171.266C282.17 170.059 284.05 169.938 285.034 170.637C286.233 171.49 286.578 173.016 286.405 174.051C286.267 174.922 285.577 176.06 284.835 176.543C283.628 177.328 281.221 177.518 280.005 176.5" fill="white"/>
<path d="M281.014 171.266C282.17 170.059 284.05 169.938 285.034 170.637C286.233 171.49 286.578 173.016 286.405 174.051C286.267 174.922 285.577 176.06 284.835 176.543C283.628 177.328 281.221 177.518 280.005 176.5" stroke="black" stroke-miterlimit="10" stroke-linecap="round"/>
<path d="M283.136 172.533C283.136 172.533 283.188 172.551 283.214 172.559C283.266 172.577 283.145 172.525 283.197 172.559C283.24 172.585 283.283 172.602 283.317 172.628C283.352 172.654 283.395 172.68 283.438 172.706C283.378 172.654 283.481 172.732 283.438 172.706C283.455 172.723 283.473 172.732 283.481 172.749C283.516 172.784 283.55 172.818 283.576 172.853C283.593 172.87 283.619 172.887 283.628 172.913C283.619 172.887 283.585 172.853 283.619 172.904C283.654 172.956 283.68 172.99 283.705 173.034C283.714 173.051 283.723 173.068 283.731 173.085C283.731 173.103 283.766 173.18 283.749 173.12C283.731 173.059 283.749 173.128 283.749 173.146C283.757 173.172 283.766 173.197 283.774 173.232C283.792 173.284 283.8 173.335 283.809 173.387C283.818 173.448 283.809 173.31 283.809 173.379C283.809 173.404 283.809 173.439 283.809 173.465C283.809 173.516 283.809 173.568 283.809 173.62C283.809 173.629 283.8 173.706 283.809 173.646C283.818 173.585 283.809 173.68 283.8 173.689C283.792 173.741 283.774 173.792 283.757 173.836C283.757 173.861 283.74 173.879 283.731 173.905C283.714 173.956 283.766 173.844 283.731 173.905C283.705 173.956 283.68 174.008 283.645 174.051C283.524 174.241 283.602 174.534 283.8 174.637C284.016 174.75 284.266 174.689 284.387 174.482C284.697 173.982 284.758 173.327 284.525 172.784C284.309 172.275 283.887 171.887 283.352 171.714C283.136 171.645 282.869 171.801 282.817 172.016C282.765 172.258 282.886 172.473 283.119 172.551L283.136 172.533Z" fill="black"/>
<path d="M271.379 175.207C273.742 175.207 275.658 173.292 275.658 170.93C275.658 168.568 273.742 166.653 271.379 166.653C269.017 166.653 267.101 168.568 267.101 170.93C267.101 173.292 269.017 175.207 271.379 175.207Z" stroke="black" stroke-miterlimit="10"/>
<path d="M259.079 171.378C261.442 171.378 263.357 169.463 263.357 167.101C263.357 164.739 261.442 162.824 259.079 162.824C256.716 162.824 254.801 164.739 254.801 167.101C254.801 169.463 256.716 171.378 259.079 171.378Z" stroke="black" stroke-miterlimit="10"/>
<path d="M263.34 169.162C263.452 169.145 263.59 169.127 263.746 169.127C263.91 169.127 264.082 169.127 264.246 169.153C264.556 169.188 264.919 169.274 265.238 169.378C265.557 169.481 265.816 169.593 266.1 169.757C266.368 169.912 266.514 170.007 266.713 170.231C266.868 170.404 267.161 170.386 267.325 170.231C267.498 170.059 267.481 169.8 267.325 169.619C266.851 169.084 266.135 168.765 265.471 168.55C264.72 168.3 263.901 168.188 263.116 168.334C262.883 168.377 262.754 168.653 262.814 168.869C262.883 169.11 263.116 169.214 263.349 169.171L263.34 169.162Z" fill="black"/>
<path d="M275.752 172.076C276.839 171.956 277.909 171.783 278.978 171.542C279.487 171.43 279.996 171.3 280.505 171.154C281.014 171.007 281.506 170.818 282.032 170.766C282.265 170.74 282.463 170.585 282.463 170.335C282.463 170.119 282.265 169.878 282.032 169.904C280.997 170.016 279.996 170.421 278.987 170.662C277.926 170.912 276.848 171.093 275.761 171.223C275.528 171.249 275.33 171.404 275.33 171.654C275.33 171.87 275.528 172.111 275.761 172.085L275.752 172.076Z" fill="black"/>
<path d="M293.021 394.622C291.908 397.088 290.217 401.477 290.278 404.168C290.493 412.17 287.224 421.103 287.224 421.103C286.267 424.216 284.809 427.768 283.593 427.165C283.101 426.923 283.067 425.423 283.593 423.284C284.697 418.861 285.318 416.964 285.223 416.007C285.18 415.576 284.602 415.464 284.404 415.852C283.489 417.628 282.178 422.483 281.368 424.44C280.591 426.32 279.453 429.053 278.314 428.622C277.684 428.32 277.745 427.423 278.262 426.156C279.729 422.595 280.462 420.542 281.73 416.904C281.92 416.317 282.239 415.308 281.411 415.231C280.427 415.576 277.572 424.043 276.382 426.69C276.201 427.113 275.787 427.932 274.993 427.794C274.45 427.699 273.95 427.13 274.139 426.38C274.338 425.638 274.847 424.276 275.149 423.466C276.339 420.344 277.771 417.481 279.065 414.412C279.315 413.791 278.582 413.325 278.185 413.739C277.564 414.377 275.235 419.809 273.924 422.414C273.544 423.155 272.966 423.914 272.328 423.707C271.051 423.284 272.086 420.792 272.224 420.43C273.924 416.033 277.443 409.316 278.892 405.332C279.073 404.832 278.823 404.228 278.34 404.78C277.003 406.323 276.831 407.03 275.356 408.919C274.019 410.626 272.811 411.29 272.207 411.049C271.198 410.652 271.612 409.324 271.845 408.919C272.949 406.987 273.906 405.72 275.183 404.081C276.14 402.84 278.461 400.339 279.651 398.994C280.66 397.847 284.162 394.614 285.292 390.57L293.004 394.64L293.021 394.622Z" fill="white" stroke="black" stroke-miterlimit="10"/>
<path d="M211.052 163.359C211.552 164.135 211.354 165.161 210.603 165.704C184.131 184.588 174.608 189.296 176.713 198.6C178.007 204.309 184.217 210.75 197.061 215.104C217.236 221.951 231.745 220.114 236.282 219.243C237.127 219.079 237.938 219.58 238.222 220.381C240.431 226.659 246.141 231.419 252.023 231.479C257.552 231.539 263.513 227.633 266.023 222.278C266.523 221.209 267.964 220.994 268.792 221.839C275.373 228.521 290.045 242.119 297.886 255.58C321.416 295.977 317.854 320.423 315.637 332.003C311.092 355.777 304.165 374.255 294.556 395.097C294.168 395.933 293.193 396.321 292.34 395.976L285.37 392.587C284.568 392.268 284.093 391.38 284.344 390.552C288.38 377.144 291.658 368.107 294.72 354.078C298.731 335.668 303.303 318.612 287.828 289.7C277.667 270.721 274.398 272.498 274.39 272.523C274.39 272.523 287.57 310.86 288.682 314.853C290.951 322.958 292.564 332.064 288.38 341.385C288.38 341.385 287.725 352.767 241.491 353.604C224.344 353.914 212 350.784 204.643 348.447C185.563 342.394 188.91 312.507 195.379 296.046C200.365 283.354 207.282 273.162 212.156 262.521C216.115 253.872 217.271 245.543 203.642 239.688C185.528 231.91 163.335 219.838 159.574 205.481C157.668 198.195 159.979 191.771 163.378 187.011C164.913 184.864 166.733 182.933 168.717 181.199C179.922 171.438 193.361 163.937 205.35 157.34C206.144 156.9 207.136 157.159 207.627 157.918L211.043 163.368L211.052 163.359Z" fill="white" stroke="black" stroke-miterlimit="10"/>
<path d="M265.807 184.295C265.833 184.235 265.859 184.174 265.893 184.114C265.91 184.079 265.936 184.045 265.953 184.01C265.997 183.941 265.893 184.071 265.979 183.976C265.997 183.959 266.014 183.933 266.04 183.916C266.04 183.916 266.152 183.829 266.074 183.881C266.092 183.864 266.117 183.855 266.135 183.838C266.161 183.829 266.178 183.812 266.204 183.804C266.161 183.821 266.161 183.821 266.186 183.804C266.238 183.786 266.29 183.769 266.342 183.76C266.454 183.735 266.264 183.76 266.376 183.76C266.402 183.76 266.428 183.76 266.454 183.76C266.575 183.76 266.704 183.795 266.807 183.838C267.377 184.097 267.782 184.709 267.894 185.304C267.937 185.537 267.894 185.778 267.748 186.011C267.679 186.114 267.782 185.976 267.73 186.028C267.705 186.054 267.687 186.08 267.661 186.097C267.644 186.114 267.618 186.132 267.601 186.149C267.515 186.235 267.661 186.114 267.558 186.183C267.506 186.218 267.454 186.252 267.403 186.278C267.377 186.296 267.342 186.313 267.308 186.321C267.196 186.373 267.377 186.304 267.256 186.339C267.187 186.356 267.127 186.382 267.058 186.399C267.032 186.399 267.006 186.408 266.98 186.416C266.859 186.442 267.058 186.416 266.928 186.416C266.859 186.416 266.79 186.416 266.721 186.416C266.695 186.416 266.669 186.416 266.644 186.416C266.54 186.416 266.687 186.433 266.6 186.416C266.54 186.399 266.471 186.382 266.411 186.365C266.488 186.39 266.411 186.364 266.385 186.356C266.359 186.339 266.324 186.33 266.299 186.313C266.273 186.296 266.255 186.287 266.238 186.27C266.307 186.321 266.204 186.235 266.195 186.235C266.143 186.183 266.092 186.132 266.048 186.08C265.962 185.976 266.083 186.14 266.014 186.028C265.988 185.994 265.962 185.951 265.945 185.916C265.902 185.839 265.859 185.761 265.824 185.675C265.824 185.692 265.841 185.726 265.824 185.649C265.807 185.606 265.79 185.563 265.781 185.519C265.755 185.425 265.738 185.338 265.712 185.244C265.652 184.959 265.686 184.605 265.798 184.295C265.876 184.079 265.712 183.821 265.496 183.76C265.255 183.691 265.039 183.838 264.962 184.062C264.686 184.856 264.815 185.821 265.307 186.502C265.548 186.839 265.859 187.115 266.264 187.235C266.635 187.347 267.049 187.33 267.411 187.218C268.222 186.968 268.817 186.27 268.757 185.39C268.696 184.511 268.093 183.562 267.299 183.131C266.885 182.907 266.376 182.821 265.928 182.984C265.427 183.174 265.143 183.579 264.953 184.062C264.867 184.278 265.048 184.536 265.255 184.597C265.496 184.666 265.703 184.511 265.79 184.295H265.807Z" fill="black"/>
<path d="M189.945 575.787C188.754 575.71 187.65 576.477 187.357 577.632C187.064 578.788 186.977 580.004 186.865 581.021C186.676 582.772 185.658 587.402 175.919 589.851C173.073 590.567 169.735 591.093 166.94 592.015C166.034 592.317 164.879 593.24 164.473 594.197C163.8 595.783 163.869 598.008 165.871 598.534C166.992 598.827 180.698 599.552 186.581 598.81C190.014 598.379 190.945 594.731 191.247 593.817C191.652 592.36 191.954 591.989 193.102 591.981C194.068 591.972 194.525 592.757 194.663 594.249C194.801 596.663 194.973 598.103 196.647 598.474C198.018 598.775 200.942 598.957 202.227 598.267C205.669 596.723 204.315 583.306 202.133 577.9C201.675 576.779 200.623 576.011 199.407 575.942L189.945 575.787Z" fill="white" stroke="black" stroke-miterlimit="10"/>
<path d="M254.318 575.606C253.127 575.589 252.058 576.399 251.816 577.572C251.575 578.745 251.54 579.961 251.471 580.987C251.359 582.746 250.548 587.411 240.931 590.291C238.119 591.136 234.807 591.808 232.064 592.852C231.167 593.188 230.062 594.171 229.7 595.145C229.096 596.758 229.269 598.982 231.287 599.414C232.426 599.655 246.149 599.767 251.989 598.767C255.396 598.181 256.164 594.499 256.431 593.567C256.776 592.093 257.061 591.713 258.199 591.653C259.165 591.601 259.657 592.36 259.855 593.852C260.097 596.258 260.338 597.689 262.02 597.991C263.409 598.232 266.333 598.284 267.593 597.542C270.965 595.844 269.016 582.504 266.592 577.201C266.092 576.098 264.996 575.382 263.789 575.365L254.326 575.632L254.318 575.606Z" fill="white" stroke="black" stroke-miterlimit="10"/>
<path d="M236.066 364.486C233.021 375.816 234.237 391.087 234.237 391.087C234.237 391.087 226.724 390.052 228.458 374.186" stroke="white" stroke-miterlimit="10" stroke-linecap="round"/>
<path d="M283.964 354.302C283.964 354.302 261.753 364.486 231.408 361.588C203.479 358.924 197.216 355.751 197.216 355.751" stroke="white" stroke-miterlimit="10" stroke-linecap="round"/>
<path d="M117.3 113.226L118.49 125.901C118.62 127.246 118.188 128.583 117.308 129.609C117.308 129.609 115.402 132.006 114.1 133.222C110.658 136.421 108.329 136.309 104.758 134.214C104.655 134.153 100.368 131.222 100.368 131.222C99.1429 130.385 98.358 129.049 98.22 127.583L97.0469 115.062L117.3 113.234V113.226Z" fill="white" stroke="black" stroke-miterlimit="10"/>
<path d="M118.447 112.527C122.174 110.768 122.751 107.173 122.95 103.62C123.105 100.826 122.458 98.0239 122.734 95.2387C123.321 89.2459 127.91 84.5206 130.376 79.0365C133.016 73.173 133.154 66.3179 131.187 60.1957C129.221 54.0735 125.313 47.2184 120.31 43.1743C113.626 37.785 101.843 34.3532 90.552 40.2512C85.092 43.1053 80.1409 47.1753 77.1564 52.5645C73.9735 58.3073 73.042 65.1797 74.1374 71.6468C75.2329 78.1138 78.295 84.1757 82.4698 89.2373C87.8694 95.7733 88.5853 101.921 89.4307 105.612C90.276 109.303 91.4836 113.416 96.2363 114.933C96.2363 114.933 100.506 115.873 107.553 115.166C114.73 114.45 118.439 112.519 118.439 112.519L118.447 112.527Z" fill="white" stroke="black" stroke-miterlimit="10"/>
<path d="M117.542 116.037C117.895 116.192 118.094 116.365 118.111 116.571C118.206 117.615 113.488 118.908 107.562 119.469C101.636 120.029 96.7538 119.624 96.659 118.581C96.6417 118.374 96.8056 118.167 97.1161 117.951" stroke="black" stroke-miterlimit="10"/>
<path d="M117.843 119.227C118.197 119.383 118.395 119.555 118.413 119.762C118.507 120.805 113.789 122.099 107.863 122.659C101.938 123.211 97.0556 122.814 96.9607 121.771C96.9435 121.564 97.1073 121.357 97.4179 121.142" stroke="black" stroke-miterlimit="10"/>
<path d="M118.137 122.418C118.49 122.573 118.689 122.745 118.706 122.952C118.801 123.996 114.083 125.289 108.157 125.85C102.231 126.401 97.349 126.005 97.2542 124.961C97.2369 124.754 97.4008 124.548 97.7113 124.332" stroke="black" stroke-miterlimit="10"/>
<path d="M104.724 115.382C101.774 101.119 99.9451 83.5031 94.8819 69.8446C94.5196 68.8616 92.5789 63.5672 88.7577 66.1799C86.8773 67.4647 87.9296 70.5258 89.0424 71.6123C90.2499 72.785 91.8716 73.4317 93.1395 73.7162C97.2022 74.6216 100.816 74.7165 105.457 74.0784C110.339 73.4144 115.031 72.7505 117.774 69.4824C119.586 67.3267 119.301 64.3346 116.144 63.6103C113.737 63.0584 112.219 64.5071 111.512 65.4211C110.805 66.3351 110.443 67.4647 110.115 68.577C106.104 81.951 108.269 101.016 109.856 114.89" stroke="black" stroke-miterlimit="10"/>
<path d="M116.903 15.3313C117.317 10.9768 117.731 6.62231 118.154 2.2678C118.214 1.64695 118.275 1.03474 118.327 0.413894C118.378 -0.137965 117.516 -0.137965 117.464 0.413894C117.05 4.76841 116.636 9.12292 116.213 13.4774C116.153 14.0983 116.093 14.7105 116.041 15.3313C115.989 15.8832 116.852 15.8832 116.903 15.3313Z" fill="black"/>
<path d="M177.688 32.8012C183.166 29.6193 188.651 26.4375 194.129 23.2557C194.612 22.9798 194.172 22.2296 193.697 22.5142C188.22 25.696 182.734 28.8778 177.257 32.0596C176.774 32.3355 177.214 33.0857 177.688 32.8012Z" fill="black"/>
<path d="M0.526394 113.088C5.1066 111.665 9.67817 110.251 14.2584 108.828C14.7845 108.664 14.5603 107.828 14.0255 108C9.44528 109.423 4.87371 110.837 0.293503 112.26C-0.23266 112.424 -0.00839376 113.26 0.526394 113.088Z" fill="black"/>
<path d="M40.834 33.7496C34.6839 29.8435 28.5338 25.9373 22.3752 22.0312C21.9094 21.7294 21.4695 22.4796 21.9439 22.7728C28.0939 26.6789 34.244 30.585 40.4027 34.4911C40.8685 34.7929 41.3084 34.0428 40.834 33.7496Z" fill="black"/>
<path d="M175.6 103.387C177.852 103.827 180.103 104.267 182.354 104.707L193.067 106.802C193.895 106.966 194.723 107.13 195.56 107.285C196.103 107.388 196.336 106.561 195.793 106.457C193.542 106.017 191.29 105.578 189.039 105.138L178.326 103.042C177.498 102.879 176.67 102.715 175.833 102.56C175.29 102.456 175.057 103.284 175.6 103.387Z" fill="black"/>
<path d="M61.1039 317.853C61.8025 313.154 60.8537 308.222 58.4731 304.109C57.1965 301.893 53.9619 299.866 52.4092 301.901C51.8227 302.677 51.8227 303.764 52.116 304.686C53.3667 308.748 59.0941 309.817 62.8117 307.765C66.5294 305.704 68.6599 301.694 70.5489 297.892" stroke="black" stroke-miterlimit="10" stroke-linecap="round"/>
<path d="M396.598 268.617C400.229 267.66 406.103 266.048 408.587 263.84C411.071 261.624 411.399 256.295 406.681 255.735C404.913 255.528 403.369 257.011 402.567 258.589C400.945 261.797 401.428 265.953 403.748 268.704C406.069 271.454 410.088 272.636 413.521 271.575" stroke="black" stroke-miterlimit="10" stroke-linecap="round"/>
<path d="M394.32 157.659C395.562 161.177 396.804 164.695 398.047 168.213C398.228 168.731 399.064 168.507 398.875 167.981C397.633 164.463 396.39 160.944 395.148 157.426C394.967 156.909 394.131 157.133 394.32 157.659Z" fill="black"/>
<path d="M362.078 378.868C366.002 378.429 369.936 377.997 373.86 377.558C374.404 377.497 374.412 376.635 373.86 376.695C369.936 377.135 366.002 377.566 362.078 378.006C361.534 378.066 361.526 378.929 362.078 378.868Z" fill="black"/>
<path d="M337.685 219.881C339.487 217.889 341.29 215.898 343.084 213.914C343.455 213.5 342.851 212.888 342.472 213.302C340.669 215.294 338.866 217.286 337.072 219.269C336.701 219.683 337.305 220.295 337.685 219.881Z" fill="black"/>
<path d="M133.81 243.904C135.034 246.414 136.268 248.923 137.493 251.432C137.734 251.932 138.485 251.493 138.235 251.001C137.01 248.492 135.776 245.983 134.551 243.473C134.31 242.973 133.56 243.413 133.81 243.904Z" fill="black"/>
<path d="M16.7772 226.374C17.4327 223.572 18.0883 220.761 18.7438 217.958C18.8732 217.415 18.0365 217.191 17.9157 217.726C17.2602 220.528 16.6046 223.339 15.9491 226.141C15.8197 226.685 16.6564 226.909 16.7772 226.374Z" fill="black"/>
<path d="M108.959 391.242C112.729 391.734 116.498 392.234 120.259 392.725C120.811 392.794 120.802 391.932 120.259 391.863C116.489 391.371 112.72 390.871 108.959 390.38C108.407 390.311 108.416 391.173 108.959 391.242Z" fill="black"/>
<path d="M56.455 436.391C59.7241 437.995 62.7603 440.021 65.4947 442.436C65.9087 442.798 66.5211 442.194 66.1071 441.823C63.321 439.366 60.2244 437.288 56.8949 435.65C56.3946 435.408 55.9634 436.15 56.4636 436.391H56.455Z" fill="black"/>
<path d="M314.715 78.0191C318.018 76.01 321.322 74.0095 324.626 72.0004C325.1 71.7158 324.669 70.9656 324.194 71.2588C320.891 73.2679 317.587 75.2684 314.283 77.2775C313.809 77.5621 314.24 78.3122 314.715 78.0191Z" fill="black"/>
</g>
<defs>
<clipPath id="clip0_8_14621">
<rect width="413.943" height="600" fill="white"/>
</clipPath>
</defs>
</svg>
